<mxfile host="app.diagrams.net" agent="Mozilla/5.0 (Macintosh; Intel Mac OS X 10_15_7) AppleWebKit/605.1.15 (KHTML, like Gecko) Version/18.2 Safari/605.1.15" version="26.0.6">
  <diagram id="C5RBs43oDa-KdzZeNtuy" name="Page-1">
    <mxGraphModel dx="954" dy="647" grid="1" gridSize="10" guides="1" tooltips="1" connect="1" arrows="1" fold="1" page="1" pageScale="1" pageWidth="827" pageHeight="1169" math="0" shadow="0">
      <root>
        <mxCell id="WIyWlLk6GJQsqaUBKTNV-0" />
        <mxCell id="WIyWlLk6GJQsqaUBKTNV-1" parent="WIyWlLk6GJQsqaUBKTNV-0" />
        <mxCell id="wULqMhYoGdPGCwZH4SLe-3" style="edgeStyle=orthogonalEdgeStyle;rounded=0;orthogonalLoop=1;jettySize=auto;html=1;exitX=1;exitY=0.5;exitDx=0;exitDy=0;entryX=0.5;entryY=0;entryDx=0;entryDy=0;" parent="WIyWlLk6GJQsqaUBKTNV-1" target="wULqMhYoGdPGCwZH4SLe-12" edge="1">
          <mxGeometry relative="1" as="geometry">
            <mxPoint x="500" y="380" as="targetPoint" />
            <mxPoint x="320" y="200" as="sourcePoint" />
            <Array as="points">
              <mxPoint x="530" y="200" />
            </Array>
          </mxGeometry>
        </mxCell>
        <mxCell id="wULqMhYoGdPGCwZH4SLe-4" style="edgeStyle=orthogonalEdgeStyle;rounded=0;orthogonalLoop=1;jettySize=auto;html=1;" parent="WIyWlLk6GJQsqaUBKTNV-1" source="wULqMhYoGdPGCwZH4SLe-0" edge="1">
          <mxGeometry relative="1" as="geometry">
            <mxPoint x="290" y="290" as="targetPoint" />
          </mxGeometry>
        </mxCell>
        <mxCell id="wULqMhYoGdPGCwZH4SLe-0" value="&lt;font style=&quot;font-size: 20px;&quot;&gt;i &amp;lt; MAX_REGISTER&lt;/font&gt;" style="rounded=0;whiteSpace=wrap;html=1;" parent="WIyWlLk6GJQsqaUBKTNV-1" vertex="1">
          <mxGeometry x="180" y="170" width="220" height="60" as="geometry" />
        </mxCell>
        <mxCell id="wULqMhYoGdPGCwZH4SLe-1" value="&lt;font style=&quot;font-size: 17px;&quot;&gt;t1, regs, MAX_REGISTER&lt;/font&gt;" style="text;html=1;align=center;verticalAlign=middle;resizable=0;points=[];autosize=1;strokeColor=none;fillColor=none;strokeWidth=3;" parent="WIyWlLk6GJQsqaUBKTNV-1" vertex="1">
          <mxGeometry x="304" y="130" width="220" height="30" as="geometry" />
        </mxCell>
        <mxCell id="wULqMhYoGdPGCwZH4SLe-2" value="" style="endArrow=classic;html=1;rounded=0;entryX=0.5;entryY=0;entryDx=0;entryDy=0;" parent="WIyWlLk6GJQsqaUBKTNV-1" target="wULqMhYoGdPGCwZH4SLe-0" edge="1">
          <mxGeometry width="50" height="50" relative="1" as="geometry">
            <mxPoint x="290" y="100" as="sourcePoint" />
            <mxPoint x="340" y="50" as="targetPoint" />
          </mxGeometry>
        </mxCell>
        <mxCell id="wULqMhYoGdPGCwZH4SLe-7" style="edgeStyle=orthogonalEdgeStyle;rounded=0;orthogonalLoop=1;jettySize=auto;html=1;" parent="WIyWlLk6GJQsqaUBKTNV-1" source="wULqMhYoGdPGCwZH4SLe-5" edge="1">
          <mxGeometry relative="1" as="geometry">
            <mxPoint x="290" y="410" as="targetPoint" />
          </mxGeometry>
        </mxCell>
        <mxCell id="wULqMhYoGdPGCwZH4SLe-9" style="edgeStyle=orthogonalEdgeStyle;rounded=0;orthogonalLoop=1;jettySize=auto;html=1;" parent="WIyWlLk6GJQsqaUBKTNV-1" edge="1">
          <mxGeometry relative="1" as="geometry">
            <mxPoint x="179" y="200" as="targetPoint" />
            <mxPoint x="179" y="320" as="sourcePoint" />
            <Array as="points">
              <mxPoint x="110" y="320" />
              <mxPoint x="110" y="200" />
            </Array>
          </mxGeometry>
        </mxCell>
        <mxCell id="wULqMhYoGdPGCwZH4SLe-5" value="&lt;font style=&quot;font-size: 20px;&quot;&gt;! reg[i]&lt;/font&gt;" style="rounded=0;whiteSpace=wrap;html=1;" parent="WIyWlLk6GJQsqaUBKTNV-1" vertex="1">
          <mxGeometry x="180" y="290" width="220" height="60" as="geometry" />
        </mxCell>
        <mxCell id="wULqMhYoGdPGCwZH4SLe-15" style="edgeStyle=orthogonalEdgeStyle;rounded=0;orthogonalLoop=1;jettySize=auto;html=1;" parent="WIyWlLk6GJQsqaUBKTNV-1" source="wULqMhYoGdPGCwZH4SLe-8" edge="1">
          <mxGeometry relative="1" as="geometry">
            <mxPoint x="290" y="540" as="targetPoint" />
          </mxGeometry>
        </mxCell>
        <mxCell id="wULqMhYoGdPGCwZH4SLe-8" value="&lt;font style=&quot;font-size: 20px;&quot;&gt;regs[i] = 1;&lt;/font&gt;&lt;div&gt;&lt;font style=&quot;font-size: 20px;&quot;&gt;return i;&lt;/font&gt;&lt;/div&gt;" style="rounded=0;whiteSpace=wrap;html=1;" parent="WIyWlLk6GJQsqaUBKTNV-1" vertex="1">
          <mxGeometry x="180" y="410" width="220" height="60" as="geometry" />
        </mxCell>
        <mxCell id="wULqMhYoGdPGCwZH4SLe-14" style="edgeStyle=orthogonalEdgeStyle;rounded=0;orthogonalLoop=1;jettySize=auto;html=1;" parent="WIyWlLk6GJQsqaUBKTNV-1" source="wULqMhYoGdPGCwZH4SLe-12" edge="1">
          <mxGeometry relative="1" as="geometry">
            <mxPoint x="530" y="540" as="targetPoint" />
          </mxGeometry>
        </mxCell>
        <mxCell id="wULqMhYoGdPGCwZH4SLe-12" value="&lt;font style=&quot;font-size: 20px;&quot;&gt;return -1&lt;/font&gt;" style="rounded=0;whiteSpace=wrap;html=1;" parent="WIyWlLk6GJQsqaUBKTNV-1" vertex="1">
          <mxGeometry x="420" y="410" width="220" height="60" as="geometry" />
        </mxCell>
        <mxCell id="wULqMhYoGdPGCwZH4SLe-16" value="&lt;font style=&quot;font-size: 18px;&quot;&gt;regs&lt;/font&gt;" style="text;html=1;align=center;verticalAlign=middle;resizable=0;points=[];autosize=1;strokeColor=none;fillColor=none;" parent="WIyWlLk6GJQsqaUBKTNV-1" vertex="1">
          <mxGeometry x="290" y="490" width="60" height="30" as="geometry" />
        </mxCell>
        <mxCell id="wULqMhYoGdPGCwZH4SLe-17" value="&lt;font style=&quot;font-size: 20px;&quot;&gt;i++&lt;/font&gt;" style="rounded=0;whiteSpace=wrap;html=1;" parent="WIyWlLk6GJQsqaUBKTNV-1" vertex="1">
          <mxGeometry x="50" y="230" width="120" height="60" as="geometry" />
        </mxCell>
      </root>
    </mxGraphModel>
  </diagram>
</mxfile>
